<svg version="1.1" id="Layer_1" xmlns="http://www.w3.org/2000/svg" xmlns:xlink="http://www.w3.org/1999/xlink" x="0px" y="0px"
	 width="100%" viewBox="0 0 1200 1200" enable-background="new 0 0 1200 1200" xml:space="preserve">
<path fill="#FB651E" opacity="1.000000" stroke="none" 
	d="
M587.000000,1201.000000 
	C391.333344,1201.000000 196.166672,1201.000000 1.000000,1201.000000 
	C1.000000,801.000000 1.000000,401.000000 1.000000,1.000000 
	C401.000000,1.000000 801.000000,1.000000 1201.000000,1.000000 
	C1201.000000,401.000000 1201.000000,801.000000 1201.000000,1201.000000 
	C996.500000,1201.000000 792.000000,1201.000000 587.000000,1201.000000 
M633.876831,544.356018 
	C623.524475,565.835815 613.172119,587.315613 602.346313,609.777832 
	C601.030151,606.196716 600.299438,603.693542 599.219849,601.351135 
	C589.197205,579.605835 579.554504,557.671265 568.970581,536.201233 
	C529.761047,456.663116 490.214600,377.291046 450.903900,297.802612 
	C449.327789,294.615662 447.475098,293.657715 444.046387,293.674133 
	C416.049164,293.807831 388.051025,293.744690 360.053162,293.762024 
	C358.496063,293.763000 356.939087,293.946442 354.936310,294.073181 
	C355.952667,296.074097 356.667999,297.546021 357.437866,298.988800 
	C378.345795,338.170837 399.285248,377.336090 420.164886,416.533234 
	C442.925690,459.261871 465.578461,502.048157 488.376923,544.756653 
	C511.569489,588.203674 534.924988,631.563843 558.046509,675.048462 
	C559.600891,677.971741 560.495483,681.622986 560.500977,684.937622 
	C560.634583,765.431213 560.605347,845.925171 560.605408,926.419006 
	C560.605408,928.503357 560.605408,930.587708 560.605408,932.646851 
	C587.405945,932.646851 613.466614,932.646851 639.863159,932.646851 
	C639.863159,930.321106 639.863159,928.346558 639.863159,926.372009 
	C639.863159,854.544128 640.289429,782.712036 639.566956,710.891418 
	C639.383850,692.686279 641.503540,676.009460 652.077332,660.900024 
	C654.149475,657.939026 655.550110,654.507996 657.260681,651.293884 
	C678.976562,610.490112 700.693298,569.686890 722.408081,528.882507 
	C762.347229,453.832489 802.286499,378.782562 842.219055,303.729034 
	C843.874207,300.618256 845.461792,297.471527 847.146667,294.214264 
	C846.153992,293.965027 845.833008,293.814148 845.511902,293.813812 
	C818.014465,293.785461 790.516541,293.702362 763.020874,293.914154 
	C761.350586,293.927032 758.988037,295.929108 758.139832,297.607971 
	C716.725159,379.583344 675.441528,461.624908 633.876831,544.356018 
z"/>
<path fill="#FFFFFE" opacity="1.000000" stroke="none" 
	d="
M634.010071,544.007568 
	C675.441528,461.624908 716.725159,379.583344 758.139832,297.607971 
	C758.988037,295.929108 761.350586,293.927032 763.020874,293.914154 
	C790.516541,293.702362 818.014465,293.785461 845.511902,293.813812 
	C845.833008,293.814148 846.153992,293.965027 847.146667,294.214264 
	C845.461792,297.471527 843.874207,300.618256 842.219055,303.729034 
	C802.286499,378.782562 762.347229,453.832489 722.408081,528.882507 
	C700.693298,569.686890 678.976562,610.490112 657.260681,651.293884 
	C655.550110,654.507996 654.149475,657.939026 652.077332,660.900024 
	C641.503540,676.009460 639.383850,692.686279 639.566956,710.891418 
	C640.289429,782.712036 639.863159,854.544128 639.863159,926.372009 
	C639.863159,928.346558 639.863159,930.321106 639.863159,932.646851 
	C613.466614,932.646851 587.405945,932.646851 560.605408,932.646851 
	C560.605408,930.587708 560.605408,928.503357 560.605408,926.419006 
	C560.605347,845.925171 560.634583,765.431213 560.500977,684.937622 
	C560.495483,681.622986 559.600891,677.971741 558.046509,675.048462 
	C534.924988,631.563843 511.569489,588.203674 488.376923,544.756653 
	C465.578461,502.048157 442.925690,459.261871 420.164886,416.533234 
	C399.285248,377.336090 378.345795,338.170837 357.437866,298.988800 
	C356.667999,297.546021 355.952667,296.074097 354.936310,294.073181 
	C356.939087,293.946442 358.496063,293.763000 360.053162,293.762024 
	C388.051025,293.744690 416.049164,293.807831 444.046387,293.674133 
	C447.475098,293.657715 449.327789,294.615662 450.903900,297.802612 
	C490.214600,377.291046 529.761047,456.663116 568.970581,536.201233 
	C579.554504,557.671265 589.197205,579.605835 599.219849,601.351135 
	C600.299438,603.693542 601.030151,606.196716 602.346313,609.777832 
	C613.172119,587.315613 623.524475,565.835815 634.010071,544.007568 
z"/>
</svg>